<svg version="1.1" id="Layer_1" xmlns="http://www.w3.org/2000/svg" xmlns:xlink="http://www.w3.org/1999/xlink" x="0px" y="0px"
	 width="100%" viewBox="0 0 349 82" enable-background="new 0 0 349 82" xml:space="preserve">
<path fill="#020202" opacity="1.000000" stroke="none" 
	d="
M249.000000,83.000000 
	C166.000015,83.000000 83.500023,83.000000 1.000022,83.000000 
	C1.000015,55.666679 1.000015,28.333359 1.000007,1.000030 
	C117.333305,1.000020 233.666611,1.000020 349.999939,1.000010 
	C349.999939,28.333303 349.999939,55.666607 349.999969,82.999954 
	C316.500000,83.000000 283.000000,83.000000 249.000000,83.000000 
M323.650269,43.912437 
	C315.818939,43.699188 321.555664,38.207283 319.406250,35.268188 
	C322.783936,35.268188 325.221893,35.268188 327.698761,35.268188 
	C327.977539,36.627201 328.223053,37.824139 328.501099,39.179680 
	C330.896088,38.627251 332.996521,38.193035 335.070282,37.655979 
	C345.699921,34.903198 345.698517,34.893841 344.491730,23.782274 
	C344.476562,23.642782 344.294403,23.521433 344.038483,23.202625 
	C330.625854,23.202625 317.061890,23.202625 303.295471,23.202625 
	C303.295471,34.150433 303.295471,44.875431 303.295471,56.031067 
	C311.575989,56.031067 319.650818,56.031067 327.704559,56.031067 
	C327.704559,59.179119 327.704559,61.882729 327.704559,64.934219 
	C324.324982,63.967117 319.671875,67.290184 319.170197,60.697178 
	C314.282745,61.864441 309.613617,62.884499 305.017761,64.167015 
	C304.214539,64.391167 303.222504,65.688454 303.169403,66.543045 
	C302.957520,69.953468 303.082031,73.384789 303.082031,76.677292 
	C317.271973,76.677292 330.829132,76.677292 344.385620,76.677292 
	C344.385620,65.616348 344.385620,54.883938 344.385620,43.912762 
	C337.589111,43.912762 331.105377,43.912762 323.650269,43.912437 
M115.219711,49.500031 
	C115.219711,40.748459 115.219711,31.996889 115.219711,23.191879 
	C101.210831,23.191879 87.791992,23.191879 74.177933,23.191879 
	C74.177933,41.127506 74.177933,58.858212 74.177933,76.697006 
	C79.599968,76.697006 84.820320,76.697006 90.398239,76.697006 
	C90.398239,62.796612 90.398239,49.191727 90.398239,35.339600 
	C93.327888,35.339600 95.899582,35.339600 98.903061,35.339600 
	C98.903061,50.548435 98.903061,65.627602 98.903061,81.060715 
	C104.723442,79.521957 110.049232,78.113960 115.220772,76.746735 
	C115.220772,67.489075 115.220772,58.994553 115.219711,49.500031 
M7.491939,75.040588 
	C8.040410,75.689743 8.572320,76.885139 9.139953,76.902344 
	C14.049470,77.051201 18.965416,76.988052 24.270901,76.988052 
	C24.270901,69.605042 24.270901,62.868725 24.270901,55.759171 
	C32.745087,55.759171 40.812901,55.759171 48.706154,55.759171 
	C48.706154,51.606445 48.706154,47.856129 48.706154,43.719894 
	C40.344364,43.719894 32.269463,43.719894 24.207657,43.719894 
	C24.207657,40.715408 24.207657,38.113800 24.207657,35.102638 
	C32.468582,35.102638 40.537109,35.102638 48.660881,35.102638 
	C48.660881,30.819212 48.660881,26.958601 48.660881,23.144421 
	C34.877567,23.144421 21.433748,23.144421 7.482822,23.144421 
	C7.482822,40.240330 7.482822,57.176487 7.491939,75.040588 
M207.034348,75.315186 
	C207.034348,71.875267 207.034348,68.435349 207.034348,64.531273 
	C198.402008,64.531273 190.326401,64.531273 182.394012,64.531273 
	C182.394012,54.475731 182.394012,44.904469 182.394012,34.865986 
	C190.802689,34.865986 198.869247,34.865986 206.722534,34.865986 
	C206.722534,30.639818 206.722534,26.895958 206.722534,23.244797 
	C192.985611,23.244797 179.568375,23.244797 166.112366,23.244797 
	C166.112366,41.225494 166.112366,58.948563 166.112366,76.994728 
	C176.822235,76.994728 187.282196,77.047768 197.740997,76.961922 
	C200.819916,76.936653 203.895584,76.518211 207.034348,75.315186 
M211.461838,43.499676 
	C211.461838,54.598789 211.461838,65.697899 211.461838,76.702194 
	C225.671783,76.702194 239.245773,76.702194 252.875214,76.702194 
	C252.875214,69.932480 252.875214,63.468117 252.875214,56.467461 
	C247.393173,57.782860 242.152969,59.040234 237.003906,60.275734 
	C236.575882,61.853210 236.200989,63.234909 235.868561,64.460037 
	C233.105743,64.460037 230.692352,64.460037 228.026093,64.460037 
	C228.026093,50.535450 228.026093,36.908825 228.026093,23.020563 
	C222.485794,21.644936 217.136566,20.316748 211.460999,18.907534 
	C211.460999,27.188484 211.460999,34.844090 211.461838,43.499676 
M276.599548,64.777214 
	C273.106201,65.146843 274.037323,62.542320 274.030334,60.773949 
	C273.980865,48.286030 274.004059,35.797825 274.004059,23.015841 
	C268.497040,21.650211 263.146515,20.323393 257.796509,18.996702 
	C257.796509,38.626873 257.796509,57.713455 257.796509,76.676796 
	C271.711060,76.676796 285.287720,76.676796 298.859497,76.676796 
	C298.859497,69.875473 298.859497,63.402149 298.859497,56.177109 
	C293.014465,59.188927 285.193146,56.641869 281.209015,64.776741 
	C280.434509,64.776741 278.968292,64.776741 276.599548,64.777214 
M125.525810,35.084270 
	C127.650551,35.084270 129.775299,35.084270 132.410400,35.084270 
	C132.410400,50.530014 132.410400,65.555153 132.410400,81.017319 
	C138.337296,79.499390 143.668701,78.133972 149.324463,76.685486 
	C149.324463,62.575985 149.324463,48.863678 149.324463,34.812920 
	C153.537964,34.812920 157.297180,34.812920 160.937515,34.812920 
	C160.937515,30.716166 160.937515,26.978552 160.937515,23.328445 
	C147.114288,23.328445 133.585907,23.328445 120.287582,23.328445 
	C120.287582,27.434053 120.287582,31.183052 120.287582,35.083401 
	C121.919678,35.083401 123.236557,35.083401 125.525810,35.084270 
M53.072174,67.459740 
	C53.072174,70.564568 53.072174,73.669395 53.072174,76.698090 
	C58.897213,76.698090 64.136055,76.698090 69.408081,76.698090 
	C69.408081,58.650463 69.408081,40.915474 69.408081,23.265314 
	C63.831692,23.265314 58.575367,23.265314 53.072483,23.265314 
	C53.072483,37.864353 53.072483,52.168228 53.072174,67.459740 
M198.473724,43.922886 
	C194.578232,43.922886 190.682724,43.922886 186.832397,43.922886 
	C186.832397,48.280617 186.832397,51.901405 186.832397,55.652954 
	C193.645676,55.652954 200.311646,55.652954 206.715607,55.652954 
	C206.715607,51.545719 206.715607,47.806667 206.715607,43.923382 
	C204.077957,43.923382 201.766907,43.923382 198.473724,43.922886 
M65.219162,18.651417 
	C66.649353,18.552090 68.079544,18.452761 69.346077,18.364799 
	C69.346077,14.038796 69.346077,10.177864 69.346077,6.486851 
	C63.694969,6.486851 58.474346,6.486851 53.262764,6.486851 
	C53.262764,10.597424 53.262764,14.348372 53.262764,18.648003 
	C57.075077,18.648003 60.682335,18.648003 65.219162,18.651417 
z"/>
<path fill="#FBFBFB" opacity="1.000000" stroke="none" 
	d="
M324.135956,43.912598 
	C331.105377,43.912762 337.589111,43.912762 344.385620,43.912762 
	C344.385620,54.883938 344.385620,65.616348 344.385620,76.677292 
	C330.829132,76.677292 317.271973,76.677292 303.082031,76.677292 
	C303.082031,73.384789 302.957520,69.953468 303.169403,66.543045 
	C303.222504,65.688454 304.214539,64.391167 305.017761,64.167015 
	C309.613617,62.884499 314.282745,61.864441 319.170197,60.697178 
	C319.671875,67.290184 324.324982,63.967117 327.704559,64.934219 
	C327.704559,61.882729 327.704559,59.179119 327.704559,56.031067 
	C319.650818,56.031067 311.575989,56.031067 303.295471,56.031067 
	C303.295471,44.875431 303.295471,34.150433 303.295471,23.202625 
	C317.061890,23.202625 330.625854,23.202625 344.038483,23.202625 
	C344.294403,23.521433 344.476562,23.642782 344.491730,23.782274 
	C345.698517,34.893841 345.699921,34.903198 335.070282,37.655979 
	C332.996521,38.193035 330.896088,38.627251 328.501099,39.179680 
	C328.223053,37.824139 327.977539,36.627201 327.698761,35.268188 
	C325.221893,35.268188 322.783936,35.268188 319.406250,35.268188 
	C321.555664,38.207283 315.818939,43.699188 324.135956,43.912598 
z"/>
<path fill="#FFFFFF" opacity="1.000000" stroke="none" 
	d="
M115.220245,50.000031 
	C115.220772,58.994553 115.220772,67.489075 115.220772,76.746735 
	C110.049232,78.113960 104.723442,79.521957 98.903061,81.060715 
	C98.903061,65.627602 98.903061,50.548435 98.903061,35.339600 
	C95.899582,35.339600 93.327888,35.339600 90.398239,35.339600 
	C90.398239,49.191727 90.398239,62.796612 90.398239,76.697006 
	C84.820320,76.697006 79.599968,76.697006 74.177933,76.697006 
	C74.177933,58.858212 74.177933,41.127506 74.177933,23.191879 
	C87.791992,23.191879 101.210831,23.191879 115.219711,23.191879 
	C115.219711,31.996889 115.219711,40.748459 115.220245,50.000031 
z"/>
<path fill="#FCFCFC" opacity="1.000000" stroke="none" 
	d="
M7.487381,74.576614 
	C7.482822,57.176487 7.482822,40.240330 7.482822,23.144421 
	C21.433748,23.144421 34.877567,23.144421 48.660881,23.144421 
	C48.660881,26.958601 48.660881,30.819212 48.660881,35.102638 
	C40.537109,35.102638 32.468582,35.102638 24.207657,35.102638 
	C24.207657,38.113800 24.207657,40.715408 24.207657,43.719894 
	C32.269463,43.719894 40.344364,43.719894 48.706154,43.719894 
	C48.706154,47.856129 48.706154,51.606445 48.706154,55.759171 
	C40.812901,55.759171 32.745087,55.759171 24.270901,55.759171 
	C24.270901,62.868725 24.270901,69.605042 24.270901,76.988052 
	C18.965416,76.988052 14.049470,77.051201 9.139953,76.902344 
	C8.572320,76.885139 8.040410,75.689743 7.487381,74.576614 
z"/>
<path fill="#FFFFFF" opacity="1.000000" stroke="none" 
	d="
M207.003540,75.797562 
	C203.895584,76.518211 200.819916,76.936653 197.740997,76.961922 
	C187.282196,77.047768 176.822235,76.994728 166.112366,76.994728 
	C166.112366,58.948563 166.112366,41.225494 166.112366,23.244797 
	C179.568375,23.244797 192.985611,23.244797 206.722534,23.244797 
	C206.722534,26.895958 206.722534,30.639818 206.722534,34.865986 
	C198.869247,34.865986 190.802689,34.865986 182.394012,34.865986 
	C182.394012,44.904469 182.394012,54.475731 182.394012,64.531273 
	C190.326401,64.531273 198.402008,64.531273 207.034348,64.531273 
	C207.034348,68.435349 207.034348,71.875267 207.003540,75.797562 
z"/>
<path fill="#F9F9F9" opacity="1.000000" stroke="none" 
	d="
M211.461426,42.999687 
	C211.460999,34.844090 211.460999,27.188484 211.460999,18.907534 
	C217.136566,20.316748 222.485794,21.644936 228.026093,23.020563 
	C228.026093,36.908825 228.026093,50.535450 228.026093,64.460037 
	C230.692352,64.460037 233.105743,64.460037 235.868561,64.460037 
	C236.200989,63.234909 236.575882,61.853210 237.003906,60.275734 
	C242.152969,59.040234 247.393173,57.782860 252.875214,56.467461 
	C252.875214,63.468117 252.875214,69.932480 252.875214,76.702194 
	C239.245773,76.702194 225.671783,76.702194 211.461838,76.702194 
	C211.461838,65.697899 211.461838,54.598789 211.461426,42.999687 
z"/>
<path fill="#FAFAFA" opacity="1.000000" stroke="none" 
	d="
M277.050812,64.776978 
	C278.968292,64.776741 280.434509,64.776741 281.209015,64.776741 
	C285.193146,56.641869 293.014465,59.188927 298.859497,56.177109 
	C298.859497,63.402149 298.859497,69.875473 298.859497,76.676796 
	C285.287720,76.676796 271.711060,76.676796 257.796509,76.676796 
	C257.796509,57.713455 257.796509,38.626873 257.796509,18.996702 
	C263.146515,20.323393 268.497040,21.650211 274.004059,23.015841 
	C274.004059,35.797825 273.980865,48.286030 274.030334,60.773949 
	C274.037323,62.542320 273.106201,65.146843 277.050812,64.776978 
z"/>
<path fill="#FAFAFA" opacity="1.000000" stroke="none" 
	d="
M125.039619,35.083836 
	C123.236557,35.083401 121.919678,35.083401 120.287582,35.083401 
	C120.287582,31.183052 120.287582,27.434053 120.287582,23.328445 
	C133.585907,23.328445 147.114288,23.328445 160.937515,23.328445 
	C160.937515,26.978552 160.937515,30.716166 160.937515,34.812920 
	C157.297180,34.812920 153.537964,34.812920 149.324463,34.812920 
	C149.324463,48.863678 149.324463,62.575985 149.324463,76.685486 
	C143.668701,78.133972 138.337296,79.499390 132.410400,81.017319 
	C132.410400,65.555153 132.410400,50.530014 132.410400,35.084270 
	C129.775299,35.084270 127.650551,35.084270 125.039619,35.083836 
z"/>
<path fill="#F7F7F7" opacity="1.000000" stroke="none" 
	d="
M53.072327,66.965919 
	C53.072483,52.168228 53.072483,37.864353 53.072483,23.265314 
	C58.575367,23.265314 63.831692,23.265314 69.408081,23.265314 
	C69.408081,40.915474 69.408081,58.650463 69.408081,76.698090 
	C64.136055,76.698090 58.897213,76.698090 53.072174,76.698090 
	C53.072174,73.669395 53.072174,70.564568 53.072327,66.965919 
z"/>
<path fill="#FFFFFF" opacity="1.000000" stroke="none" 
	d="
M198.964783,43.923134 
	C201.766907,43.923382 204.077957,43.923382 206.715607,43.923382 
	C206.715607,47.806667 206.715607,51.545719 206.715607,55.652954 
	C200.311646,55.652954 193.645676,55.652954 186.832397,55.652954 
	C186.832397,51.901405 186.832397,48.280617 186.832397,43.922886 
	C190.682724,43.922886 194.578232,43.922886 198.964783,43.923134 
z"/>
<path fill="#EBEBEB" opacity="1.000000" stroke="none" 
	d="
M64.754379,18.649710 
	C60.682335,18.648003 57.075077,18.648003 53.262764,18.648003 
	C53.262764,14.348372 53.262764,10.597424 53.262764,6.486851 
	C58.474346,6.486851 63.694969,6.486851 69.346077,6.486851 
	C69.346077,10.177864 69.346077,14.038796 69.346077,18.364799 
	C68.079544,18.452761 66.649353,18.552090 64.754379,18.649710 
z"/>
</svg>